<svg width="24" height="24" viewBox="0 0 24 24" fill="none" xmlns="http://www.w3.org/2000/svg">
<g id="close_big">
<g id="Vector">
<path d="M16.7713 18.2059L5.2941 6.72875C4.90197 6.33661 4.90197 5.68624 5.2941 5.2941C5.68624 4.90197 6.33661 4.90197 6.72875 5.2941L18.2059 16.7713C18.598 17.1634 18.598 17.8138 18.2059 18.2059C17.8138 18.598 17.1634 18.598 16.7713 18.2059Z" fill="#8F98A9"/>
<path d="M5.2941 18.2059C4.90197 17.8138 4.90197 17.1634 5.2941 16.7713L16.7713 5.2941C17.1634 4.90197 17.8138 4.90197 18.2059 5.2941C18.598 5.68624 18.598 6.33661 18.2059 6.72875L6.72875 18.2059C6.33661 18.598 5.68624 18.598 5.2941 18.2059Z" fill="#8F98A9"/>
</g>
</g>
</svg>
