<svg width="24" height="24" viewBox="0 0 24 24" fill="none" xmlns="http://www.w3.org/2000/svg">
<g id="checkbox-checked">
<g id="Vector">
<path d="M15 22.75H9C3.57 22.75 1.25 20.43 1.25 15V9C1.25 3.57 3.57 1.25 9 1.25H15C20.43 1.25 22.75 3.57 22.75 9V15C22.75 20.43 20.43 22.75 15 22.75ZM9 2.75C4.39 2.75 2.75 4.39 2.75 9V15C2.75 19.61 4.39 21.25 9 21.25H15C19.61 21.25 21.25 19.61 21.25 15V9C21.25 4.39 19.61 2.75 15 2.75H9Z" fill="currentColor"/>
<path d="M10.5804 15.58C10.3804 15.58 10.1904 15.5 10.0504 15.36L7.22043 12.53C6.93043 12.24 6.93043 11.76 7.22043 11.47C7.51043 11.18 7.99043 11.18 8.28043 11.47L10.5804 13.77L15.7204 8.62998C16.0104 8.33998 16.4904 8.33998 16.7804 8.62998C17.0704 8.91998 17.0704 9.39997 16.7804 9.68997L11.1104 15.36C10.9704 15.5 10.7804 15.58 10.5804 15.58Z" fill="currentColor"/>
</g>
</g>
</svg>
